<svg width="503" height="528" viewBox="0 0 503 528" fill="none" xmlns="http://www.w3.org/2000/svg">
<path d="M251 0C263.082 0 275.045 2.3795 286.207 7.00293C297.369 11.6264 307.511 18.4033 316.054 26.9463C324.597 35.4893 331.374 45.631 335.997 56.793C340.493 67.6469 342.867 79.2587 342.994 91H503V215.263C500.689 215.089 498.355 215 496 215C445.19 215 404 256.19 404 307C404 357.81 445.19 399 496 399C498.355 399 500.689 398.91 503 398.736V528H342.807C342.934 526.016 343 524.016 343 522C343 471.19 301.81 430 251 430C200.19 430 159 471.19 159 522C159 524.016 159.066 526.016 159.193 528H0V403C50.8102 403 92 361.81 92 311C92 260.19 50.8102 219 0 219V91H159.006C159.133 79.2587 161.507 67.6469 166.003 56.793C170.626 45.631 177.403 35.4893 185.946 26.9463C194.489 18.4033 204.631 11.6264 215.793 7.00293C226.955 2.3795 238.918 5.28104e-07 251 0Z" fill="white"/>
</svg>
