<svg width="800" height="800" viewBox="0 0 800 800" fill="none" xmlns="http://www.w3.org/2000/svg">
<path d="M652 308.006C651.663 308.002 651.325 308 650.986 308C600.184 308 559 349.184 559 399.986C559 450.789 600.184 491.972 650.986 491.972C651.325 491.972 651.663 491.969 652 491.966V618H491.993C491.997 617.667 492 617.334 492 617C492 566.19 450.81 525 400 525C349.19 525 308 566.19 308 617C308 617.334 308.003 617.667 308.007 618H148V493.993C148.333 493.997 148.666 494 149 494C199.81 494 241 452.81 241 402C241 351.19 199.81 310 149 310C148.666 310 148.333 310.002 148 310.006V182H652V308.006Z" fill="white"/>
</svg>
