<svg width="800" height="800" viewBox="0 0 800 800" fill="none" xmlns="http://www.w3.org/2000/svg">
<path d="M308 182.986C308 233.789 349.184 274.972 399.986 274.972C450.789 274.971 491.971 233.789 491.972 182.986C491.972 182.657 491.969 182.328 491.966 182H652V308.006C651.663 308.002 651.325 308 650.986 308C600.184 308 559 349.184 559 399.986C559 450.789 600.184 491.972 650.986 491.972C651.325 491.972 651.663 491.969 652 491.966V618H491.993C491.997 617.667 492 617.334 492 617C492 566.19 450.81 525 400 525C349.19 525 308 566.19 308 617C308 617.334 308.003 617.667 308.007 618H148V493.993C97.6505 493.457 57 452.476 57 402C57 351.524 97.6505 310.542 148 310.006V182H308.007C308.003 182.328 308 182.657 308 182.986Z" fill="white"/>
</svg>
