<svg width="800" height="800" viewBox="0 0 800 800" fill="none" xmlns="http://www.w3.org/2000/svg">
<path d="M308 182.986C308 233.789 349.184 274.972 399.986 274.972C450.789 274.971 491.971 233.789 491.972 182.986C491.972 182.657 491.969 182.328 491.966 182H652V308.006C651.663 308.002 651.325 308 650.986 308C600.184 308 559 349.184 559 399.986C559 450.789 600.184 491.972 650.986 491.972C651.325 491.972 651.663 491.969 652 491.966V618H491.993C491.457 668.35 450.476 709 400 709C349.524 709 308.543 668.35 308.007 618H148V493.993C148.333 493.997 148.666 494 149 494C199.81 494 241 452.81 241 402C241 351.19 199.81 310 149 310C148.666 310 148.333 310.002 148 310.006V182H308.007C308.003 182.328 308 182.657 308 182.986Z" fill="white"/>
</svg>
